<mxfile host="app.diagrams.net" agent="Mozilla/5.0 (Macintosh; Intel Mac OS X 10_15_7) AppleWebKit/537.36 (KHTML, like Gecko) Chrome/127.0.0.0 Safari/537.36" version="24.7.6">
  <diagram name="Page-1" id="o-1Do4QwA_vBjf3LlT5f">
    <mxGraphModel dx="802" dy="483" grid="1" gridSize="10" guides="1" tooltips="1" connect="1" arrows="1" fold="1" page="1" pageScale="1" pageWidth="827" pageHeight="1169" math="0" shadow="0">
      <root>
        <mxCell id="0" />
        <mxCell id="1" parent="0" />
        <mxCell id="jtTgo0mW1fypJQQp2YNw-14" style="edgeStyle=orthogonalEdgeStyle;rounded=0;orthogonalLoop=1;jettySize=auto;html=1;exitX=1;exitY=0.5;exitDx=0;exitDy=0;entryX=0;entryY=0.5;entryDx=0;entryDy=0;" edge="1" parent="1" source="jtTgo0mW1fypJQQp2YNw-1" target="jtTgo0mW1fypJQQp2YNw-2">
          <mxGeometry relative="1" as="geometry" />
        </mxCell>
        <mxCell id="jtTgo0mW1fypJQQp2YNw-1" value="" style="rounded=0;whiteSpace=wrap;html=1;" vertex="1" parent="1">
          <mxGeometry x="124" y="180" width="120" height="300" as="geometry" />
        </mxCell>
        <mxCell id="jtTgo0mW1fypJQQp2YNw-17" style="edgeStyle=orthogonalEdgeStyle;rounded=0;orthogonalLoop=1;jettySize=auto;html=1;exitX=0;exitY=0.75;exitDx=0;exitDy=0;entryX=1;entryY=0.75;entryDx=0;entryDy=0;" edge="1" parent="1" source="jtTgo0mW1fypJQQp2YNw-2" target="jtTgo0mW1fypJQQp2YNw-1">
          <mxGeometry relative="1" as="geometry" />
        </mxCell>
        <mxCell id="jtTgo0mW1fypJQQp2YNw-2" value="" style="rounded=0;whiteSpace=wrap;html=1;" vertex="1" parent="1">
          <mxGeometry x="484" y="180" width="120" height="300" as="geometry" />
        </mxCell>
        <mxCell id="jtTgo0mW1fypJQQp2YNw-3" value="Client" style="text;html=1;align=center;verticalAlign=middle;resizable=0;points=[];autosize=1;strokeColor=none;fillColor=none;" vertex="1" parent="1">
          <mxGeometry x="159" y="508" width="50" height="30" as="geometry" />
        </mxCell>
        <mxCell id="jtTgo0mW1fypJQQp2YNw-4" value="Server" style="text;html=1;align=center;verticalAlign=middle;resizable=0;points=[];autosize=1;strokeColor=none;fillColor=none;" vertex="1" parent="1">
          <mxGeometry x="514" y="508" width="60" height="30" as="geometry" />
        </mxCell>
        <mxCell id="jtTgo0mW1fypJQQp2YNw-5" value="" style="endArrow=classic;html=1;rounded=0;exitX=1.003;exitY=0.147;exitDx=0;exitDy=0;exitPerimeter=0;entryX=-0.023;entryY=0.137;entryDx=0;entryDy=0;entryPerimeter=0;" edge="1" parent="1" source="jtTgo0mW1fypJQQp2YNw-1" target="jtTgo0mW1fypJQQp2YNw-2">
          <mxGeometry width="50" height="50" relative="1" as="geometry">
            <mxPoint x="404" y="380" as="sourcePoint" />
            <mxPoint x="454" y="330" as="targetPoint" />
          </mxGeometry>
        </mxCell>
        <mxCell id="jtTgo0mW1fypJQQp2YNw-6" value="/login (email, password)" style="text;html=1;align=center;verticalAlign=middle;resizable=0;points=[];autosize=1;strokeColor=none;fillColor=none;" vertex="1" parent="1">
          <mxGeometry x="279" y="188" width="150" height="30" as="geometry" />
        </mxCell>
        <mxCell id="jtTgo0mW1fypJQQp2YNw-7" value="" style="shape=cylinder3;whiteSpace=wrap;html=1;boundedLbl=1;backgroundOutline=1;size=15;" vertex="1" parent="1">
          <mxGeometry x="744" y="270" width="60" height="80" as="geometry" />
        </mxCell>
        <mxCell id="jtTgo0mW1fypJQQp2YNw-8" value="" style="endArrow=classic;html=1;rounded=0;exitX=1.017;exitY=0.097;exitDx=0;exitDy=0;exitPerimeter=0;entryX=0;entryY=0.125;entryDx=0;entryDy=0;entryPerimeter=0;" edge="1" parent="1" source="jtTgo0mW1fypJQQp2YNw-2" target="jtTgo0mW1fypJQQp2YNw-7">
          <mxGeometry width="50" height="50" relative="1" as="geometry">
            <mxPoint x="514" y="380" as="sourcePoint" />
            <mxPoint x="564" y="330" as="targetPoint" />
          </mxGeometry>
        </mxCell>
        <mxCell id="jtTgo0mW1fypJQQp2YNw-9" style="edgeStyle=orthogonalEdgeStyle;rounded=0;orthogonalLoop=1;jettySize=auto;html=1;exitX=0;exitY=0;exitDx=0;exitDy=27.5;exitPerimeter=0;entryX=1.03;entryY=0.395;entryDx=0;entryDy=0;entryPerimeter=0;" edge="1" parent="1" source="jtTgo0mW1fypJQQp2YNw-7" target="jtTgo0mW1fypJQQp2YNw-2">
          <mxGeometry relative="1" as="geometry" />
        </mxCell>
        <mxCell id="jtTgo0mW1fypJQQp2YNw-10" value="JWT Token&amp;nbsp;&lt;div&gt;generated on Server&lt;/div&gt;" style="text;html=1;align=center;verticalAlign=middle;resizable=0;points=[];autosize=1;strokeColor=none;fillColor=none;" vertex="1" parent="1">
          <mxGeometry x="604" y="320" width="130" height="40" as="geometry" />
        </mxCell>
        <mxCell id="jtTgo0mW1fypJQQp2YNw-11" value="" style="endArrow=classic;html=1;rounded=0;entryX=0.983;entryY=0.337;entryDx=0;entryDy=0;entryPerimeter=0;exitX=-0.03;exitY=0.342;exitDx=0;exitDy=0;exitPerimeter=0;" edge="1" parent="1" source="jtTgo0mW1fypJQQp2YNw-2" target="jtTgo0mW1fypJQQp2YNw-1">
          <mxGeometry width="50" height="50" relative="1" as="geometry">
            <mxPoint x="514" y="380" as="sourcePoint" />
            <mxPoint x="564" y="330" as="targetPoint" />
          </mxGeometry>
        </mxCell>
        <mxCell id="jtTgo0mW1fypJQQp2YNw-12" value="token" style="text;html=1;align=center;verticalAlign=middle;resizable=0;points=[];autosize=1;strokeColor=none;fillColor=none;" vertex="1" parent="1">
          <mxGeometry x="329" y="278" width="50" height="30" as="geometry" />
        </mxCell>
        <mxCell id="jtTgo0mW1fypJQQp2YNw-13" value="Store JWT&lt;div&gt;LocalStorage&lt;/div&gt;&lt;div&gt;Redux&lt;/div&gt;&lt;div&gt;InMemory&lt;/div&gt;" style="text;html=1;align=center;verticalAlign=middle;resizable=0;points=[];autosize=1;strokeColor=none;fillColor=none;" vertex="1" parent="1">
          <mxGeometry x="24" y="290" width="90" height="70" as="geometry" />
        </mxCell>
        <mxCell id="jtTgo0mW1fypJQQp2YNw-15" value="/protected-resource (Token)" style="text;html=1;align=center;verticalAlign=middle;resizable=0;points=[];autosize=1;strokeColor=none;fillColor=none;" vertex="1" parent="1">
          <mxGeometry x="269" y="330" width="170" height="30" as="geometry" />
        </mxCell>
        <mxCell id="jtTgo0mW1fypJQQp2YNw-16" value="Token Verification" style="text;html=1;align=center;verticalAlign=middle;resizable=0;points=[];autosize=1;strokeColor=none;fillColor=none;" vertex="1" parent="1">
          <mxGeometry x="609" y="380" width="120" height="30" as="geometry" />
        </mxCell>
        <mxCell id="jtTgo0mW1fypJQQp2YNw-18" value="protected resource response" style="text;html=1;align=center;verticalAlign=middle;resizable=0;points=[];autosize=1;strokeColor=none;fillColor=none;" vertex="1" parent="1">
          <mxGeometry x="264" y="410" width="180" height="30" as="geometry" />
        </mxCell>
        <mxCell id="jtTgo0mW1fypJQQp2YNw-19" value="JWT Understanding" style="text;strokeColor=none;fillColor=none;html=1;fontSize=24;fontStyle=1;verticalAlign=middle;align=center;" vertex="1" parent="1">
          <mxGeometry x="364" y="90" width="100" height="40" as="geometry" />
        </mxCell>
      </root>
    </mxGraphModel>
  </diagram>
</mxfile>
